# xmcd
#
# Track frame offsets: 
#        150
#        20918
#        47904
#        76308
#        94372
#        116313
#        142592
#
# Disc length: 2072 seconds
#
# Revision: 0
# Processed by: cddbd v1.5.2PL0 Copyright (c) Steve Scherf et al.
# Submitted via: ExactAudioCopyFreeDBPlugin 1.0
#
DISCID=53081607
DTITLE=L.A. Brumfield - I Want to Be Your Babe
DYEAR=1983
DGENRE=Soul
TTITLE0=I Want to Be Your Babe
TTITLE1=Where Has Love Gone
TTITLE2=Drag on High
TTITLE3=Game of Love
TTITLE4=You Make Me Feel So Good Inside
TTITLE5=Star Love
TTITLE6=Stripper [Instrumental]
EXTD=
EXTT0=
EXTT1=
EXTT2=
EXTT3=
EXTT4=
EXTT5=
EXTT6=
PLAYORDER=
